<?xml version="1.0" standalone="no"?>
<!DOCTYPE svg PUBLIC "-//W3C//DTD SVG 20010904//EN"
 "http://www.w3.org/TR/2001/REC-SVG-20010904/DTD/svg10.dtd">
<svg version="1.0" xmlns="http://www.w3.org/2000/svg"
 width="512.000000pt" height="512.000000pt" viewBox="0 0 512.000000 512.000000"
 preserveAspectRatio="xMidYMid meet">

<g transform="translate(0.000000,512.000000) scale(0.100000,-0.100000)"
fill="#000000" stroke="none">
<path d="M2330 4869 c-696 -70 -1337 -462 -1716 -1049 -498 -771 -497 -1763 4
-2525 101 -154 175 -245 303 -374 129 -128 220 -202 374 -303 912 -599 2136
-470 2907 305 352 354 576 801 655 1308 24 159 24 500 0 659 -78 498 -290 927
-635 1281 -134 139 -230 219 -387 324 -433 290 -982 426 -1505 374z m1205
-497 c63 -29 129 -92 163 -157 l27 -50 0 -1605 0 -1605 -27 -50 c-34 -66 -111
-137 -173 -161 -48 -18 -87 -19 -965 -19 -878 0 -917 1 -965 19 -62 24 -139
95 -173 161 l-27 50 0 1605 0 1605 24 45 c27 53 94 125 136 147 79 42 72 42
1020 40 l910 -2 50 -23z"/>
<path d="M1657 4260 c-46 -14 -98 -60 -118 -104 -18 -39 -19 -99 -19 -1596 l0
-1556 23 -44 c13 -26 40 -57 65 -75 l44 -30 908 0 908 0 44 30 c25 18 52 49
66 75 l22 44 0 1556 0 1556 -22 44 c-14 26 -41 57 -66 75 l-44 30 -891 2
c-491 1 -905 -2 -920 -7z m1728 -209 c111 -50 150 -187 82 -290 -47 -70 -86
-81 -292 -81 -162 0 -183 2 -223 21 -105 51 -137 207 -60 295 59 67 82 73 278
73 148 1 181 -2 215 -18z m-1111 -831 c80 -27 136 -63 215 -137 l71 -65 67 63
c86 79 140 113 217 138 186 61 386 14 521 -123 204 -207 194 -487 -28 -798
-116 -162 -338 -384 -467 -466 -206 -133 -471 -117 -680 41 -94 72 -331 317
-402 417 -121 171 -169 288 -176 432 -5 117 16 202 76 293 123 191 374 278
586 205z"/>
<path d="M3000 3920 c-27 -27 -26 -75 2 -94 18 -13 53 -16 175 -16 140 0 155
2 173 20 11 11 20 31 20 45 0 14 -9 34 -20 45 -18 18 -33 20 -175 20 -142 0
-157 -2 -175 -20z"/>
<path d="M2060 3108 c-80 -10 -143 -41 -205 -99 -73 -69 -107 -141 -113 -240
-7 -121 38 -241 149 -398 60 -86 260 -295 359 -376 166 -136 341 -158 523 -67
60 30 99 62 238 201 278 277 380 459 366 647 -19 260 -305 417 -541 297 -29
-15 -95 -69 -152 -124 -67 -65 -110 -99 -124 -99 -14 0 -57 34 -124 99 -59 57
-123 109 -153 125 -62 31 -147 44 -223 34z"/>
</g>
</svg>
