<?xml version="1.0" standalone="no"?>
<!DOCTYPE svg PUBLIC "-//W3C//DTD SVG 20010904//EN"
 "http://www.w3.org/TR/2001/REC-SVG-20010904/DTD/svg10.dtd">
<svg version="1.0" xmlns="http://www.w3.org/2000/svg"
 width="512.000000pt" height="512.000000pt" viewBox="0 0 512.000000 512.000000"
 preserveAspectRatio="xMidYMid meet">

<g transform="translate(0.000000,512.000000) scale(0.100000,-0.100000)"
fill="#000000" stroke="none">
<path d="M2325 4868 c-692 -69 -1333 -462 -1711 -1048 -498 -771 -497 -1763 4
-2525 101 -154 175 -245 303 -374 129 -128 220 -202 374 -303 912 -599 2136
-470 2907 305 352 354 576 801 655 1308 24 159 24 500 0 659 -49 312 -153 600
-313 870 -178 299 -491 609 -800 793 -423 252 -928 365 -1419 315z m478 -163
c974 -114 1744 -856 1893 -1823 142 -932 -360 -1873 -1214 -2274 -659 -309
-1425 -269 -2042 107 -866 527 -1250 1584 -924 2541 327 958 1286 1566 2287
1449z"/>
<path d="M1625 4386 c-89 -28 -162 -90 -206 -176 l-24 -45 0 -1605 0 -1605 27
-50 c34 -66 111 -137 173 -161 48 -18 87 -19 965 -19 878 0 917 1 965 19 62
24 139 95 173 161 l27 50 0 1605 0 1605 -27 50 c-34 65 -100 128 -163 157
l-50 23 -910 2 c-715 1 -919 -1 -950 -11z m1887 -151 c25 -18 52 -49 66 -75
l22 -44 0 -1557 0 -1556 -23 -44 c-13 -24 -43 -57 -66 -74 l-43 -30 -908 0
-908 0 -44 30 c-25 18 -52 49 -65 75 l-23 44 0 1556 c0 1497 1 1557 19 1596
20 44 72 90 118 104 15 5 429 8 920 7 l891 -2 44 -30z"/>
<path d="M2965 4056 c-44 -19 -103 -89 -111 -131 -18 -96 22 -187 98 -224 40
-19 61 -21 223 -21 208 0 245 11 293 83 23 35 27 51 27 113 0 81 -11 104 -79
158 l-38 31 -191 2 c-143 2 -200 -1 -222 -11z m385 -136 c11 -11 20 -31 20
-45 0 -14 -9 -34 -20 -45 -18 -18 -33 -20 -173 -20 -122 0 -157 3 -175 16 -28
19 -29 67 -2 94 18 18 33 20 175 20 142 0 157 -2 175 -20z"/>
<path d="M2040 3244 c-258 -50 -430 -249 -430 -498 0 -157 57 -295 203 -491
80 -107 328 -351 416 -409 207 -138 462 -138 666 1 98 67 355 327 437 443 70
98 124 198 154 285 22 65 29 205 14 278 -47 227 -256 392 -495 391 -146 0
-245 -43 -373 -159 l-72 -67 -68 62 c-83 77 -130 108 -209 137 -61 22 -192 37
-243 27z m243 -170 c30 -16 94 -68 153 -125 67 -65 110 -99 124 -99 14 0 57
34 124 99 56 55 123 109 151 124 139 70 309 48 421 -55 176 -162 163 -393 -38
-663 -64 -85 -259 -287 -349 -361 -197 -161 -421 -161 -619 1 -99 81 -299 290
-359 376 -148 209 -186 384 -117 531 32 67 117 151 183 179 101 43 232 40 326
-7z"/>
</g>
</svg>
